<svg id="Layer_1" data-name="Layer 1" xmlns="http://www.w3.org/2000/svg" xmlns:xlink="http://www.w3.org/1999/xlink" viewBox="0 0 181.63 64.88"><defs><style>.cls-1{fill:url(#linear-gradient);}.cls-2{fill:url(#linear-gradient-2);}.cls-3{fill:url(#linear-gradient-3);}.cls-4{fill:url(#linear-gradient-4);}.cls-5{fill:url(#linear-gradient-5);}.cls-6{fill:url(#linear-gradient-6);}.cls-7{fill:url(#linear-gradient-7);}.cls-8{fill:url(#linear-gradient-8);}.cls-9{fill:url(#linear-gradient-9);}.cls-10{fill:url(#linear-gradient-10);}.cls-11{fill:url(#linear-gradient-11);}.cls-12{fill:url(#linear-gradient-12);}.cls-13{fill:url(#linear-gradient-13);}.cls-14{font-size:42.79px;fill:#231f20;font-family:Magneto-Bold, Magneto;font-weight:700;}</style><linearGradient id="linear-gradient" x1="260.82" y1="404.92" x2="279.76" y2="404.92" gradientUnits="userSpaceOnUse"><stop offset="0" stop-color="#7350a1"/><stop offset="0.3" stop-color="#914d9f"/><stop offset="0.89" stop-color="#d64599"/></linearGradient><linearGradient id="linear-gradient-2" x1="267.2" y1="407.9" x2="273.59" y2="407.9" xlink:href="#linear-gradient"/><linearGradient id="linear-gradient-3" x1="266.99" y1="400.35" x2="273.38" y2="400.35" xlink:href="#linear-gradient"/><linearGradient id="linear-gradient-4" x1="272.34" y1="404.03" x2="275.79" y2="404.03" xlink:href="#linear-gradient"/><linearGradient id="linear-gradient-5" x1="264.79" y1="404.23" x2="268.24" y2="404.23" xlink:href="#linear-gradient"/><linearGradient id="linear-gradient-6" x1="269.06" y1="404.13" x2="271.52" y2="404.13" xlink:href="#linear-gradient"/><linearGradient id="linear-gradient-7" x1="339.83" y1="405.9" x2="358.77" y2="405.9" xlink:href="#linear-gradient"/><linearGradient id="linear-gradient-8" x1="346.21" y1="408.39" x2="352.6" y2="408.39" xlink:href="#linear-gradient"/><linearGradient id="linear-gradient-9" x1="346" y1="400.84" x2="352.39" y2="400.84" xlink:href="#linear-gradient"/><linearGradient id="linear-gradient-10" x1="351.35" y1="404.52" x2="354.8" y2="404.52" xlink:href="#linear-gradient"/><linearGradient id="linear-gradient-11" x1="343.8" y1="404.72" x2="347.25" y2="404.72" xlink:href="#linear-gradient"/><linearGradient id="linear-gradient-12" x1="348.07" y1="404.62" x2="350.53" y2="404.62" xlink:href="#linear-gradient"/><linearGradient id="linear-gradient-13" x1="241.03" y1="393.15" x2="375.16" y2="393.15" xlink:href="#linear-gradient"/></defs><path class="cls-1" d="M277.32,397.78a8.71,8.71,0,0,0-3.73-1.51,60.13,60.13,0,0,0-6.6.14,8.25,8.25,0,0,0-4.17,1.89,9.47,9.47,0,1,0,14.5-.52ZM270.45,411a6.84,6.84,0,1,1,6.68-7A6.85,6.85,0,0,1,270.45,411Z" transform="translate(-204.04 -377.66)"/><path class="cls-2" d="M270.34,406.48a2.28,2.28,0,0,1-1.1-.25l-2,2.44a5.45,5.45,0,0,0,6.39-.15l-2.15-2.34A2.29,2.29,0,0,1,270.34,406.48Z" transform="translate(-204.04 -377.66)"/><path class="cls-3" d="M270.24,401.78a2.4,2.4,0,0,1,1.1.24l2-2.43a5.47,5.47,0,0,0-6.39.14l2.15,2.35A2.19,2.19,0,0,1,270.24,401.78Z" transform="translate(-204.04 -377.66)"/><path class="cls-4" d="M272.34,403a2.15,2.15,0,0,1,.3,1.09,2.41,2.41,0,0,1-.24,1.11l2.43,2a5.47,5.47,0,0,0-.14-6.39Z" transform="translate(-204.04 -377.66)"/><path class="cls-5" d="M267.94,404.18a2.28,2.28,0,0,1,.25-1.1l-2.44-2a5.45,5.45,0,0,0,.15,6.39l2.34-2.15A2.29,2.29,0,0,1,267.94,404.18Z" transform="translate(-204.04 -377.66)"/><path class="cls-6" d="M270.26,402.9a1.23,1.23,0,1,0,1.26,1.2A1.22,1.22,0,0,0,270.26,402.9Z" transform="translate(-204.04 -377.66)"/><path class="cls-7" d="M356.86,398.92a6.9,6.9,0,0,0-3.43-1.2H345.8c-1.34,0-3.73,1.43-5.17,3.08a9.47,9.47,0,1,0,18.14,3.6A9.38,9.38,0,0,0,356.86,398.92Zm-7.4,12.54a6.84,6.84,0,1,1,6.68-7A6.85,6.85,0,0,1,349.46,411.46Z" transform="translate(-204.04 -377.66)"/><path class="cls-8" d="M349.36,407a2.29,2.29,0,0,1-1.11-.25l-2,2.44a5.49,5.49,0,0,0,6.39-.15l-2.15-2.34A2.25,2.25,0,0,1,349.36,407Z" transform="translate(-204.04 -377.66)"/><path class="cls-9" d="M349.25,402.26a2.54,2.54,0,0,1,1.1.25l2-2.43a5.47,5.47,0,0,0-6.39.14l2.15,2.35A2.3,2.3,0,0,1,349.25,402.26Z" transform="translate(-204.04 -377.66)"/><path class="cls-10" d="M351.35,403.47a2.15,2.15,0,0,1,.3,1.09,2.41,2.41,0,0,1-.24,1.11l2.43,2a5.47,5.47,0,0,0-.14-6.39Z" transform="translate(-204.04 -377.66)"/><path class="cls-11" d="M347,404.67a2.28,2.28,0,0,1,.25-1.1l-2.44-2a5.45,5.45,0,0,0,.15,6.39l2.34-2.15A2.29,2.29,0,0,1,347,404.67Z" transform="translate(-204.04 -377.66)"/><path class="cls-12" d="M349.27,403.39a1.23,1.23,0,1,0,1.26,1.2A1.22,1.22,0,0,0,349.27,403.39Z" transform="translate(-204.04 -377.66)"/><path class="cls-13" d="M373.86,393.82l-2.8-1.4-2.42-.42a170.1,170.1,0,0,0-37.6-3.36l-2.42.05-11.56-8.39a13.86,13.86,0,0,0-8.36-2.64l-19.44.29a33.28,33.28,0,0,0-14.33,3.47l-9,4.47L249,387a14.2,14.2,0,0,0-5.87,1.69l-.56.31a3,3,0,0,0-1.49,2.09h37.68a18.14,18.14,0,0,1,4.91.69l3,.87a16.33,16.33,0,0,0,4.33.65s6.54-.29,36.37.72l-36.39.4a18.12,18.12,0,0,1-4.62-.69l-3-.87a16.65,16.65,0,0,0-4.6-.65H241v.72a.6.6,0,0,0,.06.27A15,15,0,0,0,244,397l.42.4a1,1,0,0,1,.3.71v1.25a1.22,1.22,0,0,0,.37.88,9,9,0,0,0,5.37,2.52l7.93.8a10.49,10.49,0,0,1,7.58-7.47l.65-.16a3.89,3.89,0,0,1,.9-.11h5.27a8.54,8.54,0,0,1,8.54,8.55v3.34h32.61l1.68,1h21.08l.23-1.26a13.63,13.63,0,0,1,6.41-9.22l.06,0a5.33,5.33,0,0,1,2.73-.76h6.71a7.78,7.78,0,0,1,7.78,7.78V407l3.56-.55a11.82,11.82,0,0,0,5.36-2.32l1-.79a1.32,1.32,0,0,0,.51-1v-.39a1.44,1.44,0,0,1,.37-1l1.61-1.79a1.81,1.81,0,0,1,1.35-.6h.08a.69.69,0,0,0,.69-.69v-1.91A2.36,2.36,0,0,0,373.86,393.82ZM284,386.18l-2.7-.12,5.38-3.5a16.87,16.87,0,0,1,8.27-2.7l-5.62,7.64A14.23,14.23,0,0,0,284,386.18Zm12,6.06h-3.6v-.38a.79.79,0,0,1,.79-.79h2a.79.79,0,0,1,.79.79Zm27.48-2.76H296.69a14.26,14.26,0,0,1-3.79-.52l-.1-.84a4.82,4.82,0,0,1,.71-3.18l3.23-5.11h11.87a12.52,12.52,0,0,1,7.65,2.61l7.64,5.89A.64.64,0,0,1,323.5,389.48Zm-72.21,6.3H246.2l-1.53-2h6.62ZM371,398.47l-.82.86a.72.72,0,0,1-.53.23h-4.17a.75.75,0,0,1-.74-.66l-.07-.61a.32.32,0,0,1,.32-.36h5.78A.32.32,0,0,1,371,398.47Z" transform="translate(-204.04 -377.66)"/><text class="cls-14" transform="translate(0 51.9)">Bozzcar</text></svg>